<?xml version="1.0" encoding="utf-8"?>
<!-- Generator: Adobe Illustrator 21.1.0, SVG Export Plug-In . SVG Version: 6.00 Build 0)  -->
<svg version="1.1"
	 id="svg8" inkscape:version="0.92.2 5c3e80d, 2017-08-06" sodipodi:docname="CameraButtonStand.svg" xmlns:cc="http://creativecommons.org/ns#" xmlns:dc="http://purl.org/dc/elements/1.1/" xmlns:inkscape="http://www.inkscape.org/namespaces/inkscape" xmlns:rdf="http://www.w3.org/1999/02/22-rdf-syntax-ns#" xmlns:sodipodi="http://sodipodi.sourceforge.net/DTD/sodipodi-0.dtd" xmlns:svg="http://www.w3.org/2000/svg"
	 xmlns="http://www.w3.org/2000/svg" xmlns:xlink="http://www.w3.org/1999/xlink" x="0px" y="0px" viewBox="0 0 595.3 841.9"
	 style="enable-background:new 0 0 595.3 841.9;" xml:space="preserve">
<style type="text/css">
	.st0{fill:none;stroke:#000001;stroke-width:1.000000e-03;stroke-linecap:round;stroke-linejoin:round;}
	.st1{fill:none;stroke:#000000;stroke-width:1.000000e-03;stroke-linecap:round;stroke-linejoin:round;}
	.st2{fill:none;stroke:#0000FF;stroke-width:1.000000e-03;}
	.st3{font-family:'ArialMT';}
	.st4{font-size:30px;}
	.st5{fill:#0000FF;}
</style>
<sodipodi:namedview  bordercolor="#666666" borderopacity="1.0" id="base" inkscape:current-layer="layer2" inkscape:cx="406.25692" inkscape:cy="573.94848" inkscape:document-units="mm" inkscape:guide-bbox="true" inkscape:object-paths="false" inkscape:pageopacity="0.0" inkscape:pageshadow="2" inkscape:snap-bbox="true" inkscape:snap-bbox-midpoints="true" inkscape:snap-intersection-paths="true" inkscape:snap-smooth-nodes="true" inkscape:window-height="807" inkscape:window-maximized="0" inkscape:window-width="1440" inkscape:window-x="340" inkscape:window-y="90" inkscape:zoom="0.51440662" pagecolor="#ffffff" showgrid="true" showguides="true">
	<inkscape:grid  empspacing="4" id="grid4508" spacingx="1" spacingy="1" type="xygrid" units="mm"></inkscape:grid>
	<sodipodi:guide  id="guide4543" inkscape:locked="false" orientation="0,1" position="52,292"></sodipodi:guide>
	<sodipodi:guide  id="guide4545" inkscape:locked="false" orientation="0,1" position="28,244"></sodipodi:guide>
	<sodipodi:guide  id="guide4547" inkscape:locked="false" orientation="0,1" position="230,209"></sodipodi:guide>
	<sodipodi:guide  id="guide4549" inkscape:locked="false" orientation="1,0" position="222.06164,285.75001"></sodipodi:guide>
	<sodipodi:guide  id="guide4553" inkscape:locked="false" orientation="1,0" position="218.06164,264.75538"></sodipodi:guide>
	<sodipodi:guide  id="guide4594" inkscape:locked="false" orientation="1,0" position="178,217"></sodipodi:guide>
	<sodipodi:guide  id="guide4626" inkscape:locked="false" orientation="0,1" position="126,225"></sodipodi:guide>
	<sodipodi:guide  id="guide4630" inkscape:locked="false" orientation="1,0" position="202.06164,164.96909"></sodipodi:guide>
	<sodipodi:guide  id="guide4724" inkscape:locked="false" orientation="1,0" position="8,240"></sodipodi:guide>
	<sodipodi:guide  id="guide4771" inkscape:locked="false" orientation="0,1" position="-96,197.00001"></sodipodi:guide>
	<sodipodi:guide  id="guide4775" inkscape:locked="false" orientation="0,1" position="143,197.00001"></sodipodi:guide>
	<sodipodi:guide  id="guide4796" inkscape:locked="false" orientation="1,0" position="265,199"></sodipodi:guide>
	<sodipodi:guide  id="guide4808" inkscape:locked="false" orientation="1,0" position="295.99999,201.00002"></sodipodi:guide>
	<sodipodi:guide  id="guide4554" inkscape:locked="false" orientation="1,0" position="47.999999,240.00001"></sodipodi:guide>
</sodipodi:namedview>
<g id="g887" transform="rotate(-90,113.5,117.5)">
	<path id="rect4504" inkscape:connector-curvature="0" sodipodi:nodetypes="ccccccccccccccccc" class="st0" d="M-472.5,44.7l0-11.3
		h150.2v11.3l28.3,0l40.4,0l98.5,0V33.3l22.7,0v238.1v11.3H-155v-11.3h-167.2v11.3h-150.2L-472.5,44.7z"/>
	<path id="rect4510" inkscape:connector-curvature="0" sodipodi:nodetypes="ccccccccccccccc" class="st0" d="M-166.3,101.4l0,113.4
		h11.3l0-113.4H-166.3z M-155,214.8l0,45.4h11.3l0-45.4H-155z M-166.3,214.8h-11.3l0,45.4h11.3L-166.3,214.8z"/>
	
		<rect id="rect4516" x="-172" y="73" transform="matrix(-2.535182e-06 -1 1 -2.535182e-06 -228.0004 -70.614)" class="st0" width="45.4" height="11.3"/>
	
		<rect id="rect4520" x="-194.7" y="73" transform="matrix(-2.535182e-06 -1 1 -2.535182e-06 -250.6776 -93.2912)" class="st0" width="45.4" height="11.3"/>
</g>
<g id="g4749" transform="rotate(90,164.65615,-64.656146)">
	<path id="rect4506" inkscape:connector-curvature="0" sodipodi:nodetypes="ccccccccccccccccccccc" class="st0" d="M380-178.8v11.3
		h-59.5v113.4V59.3H380v11.3h42.5V59.3l11.3,0V48V2.6h11.3v-56.7v-56.7h-11.3v-45.4v-11.3l-11.3,0v-11.3H380z"/>
	
		<rect id="rect4578" x="371.5" y="-71.1" transform="matrix(2.535182e-06 1 -1 2.535182e-06 334.4533 -442.5801)" class="st1" width="34" height="34"/>
</g>
<g id="g4759" transform="rotate(-90,202.24272,206.24278)">
	<path id="path4564" inkscape:connector-curvature="0" sodipodi:nodetypes="cccccccccccccccccccccc" class="st0" d="M67.9,33.3v11.3
		H56.5v113.4v113.4h11.3v11.3h42.5v-11.3l59.5,0v-11.3h11.3v-45.4h-11.3V101.4h11.3V56h-11.3V44.7l-59.5,0V33.3H67.9z"/>
	<g id="g4660" transform="translate(133.42376,-162.88447)">
		
			<rect id="rect4596" x="-11" y="291.9" transform="matrix(-2.535182e-06 -1 1 -2.535182e-06 -310.6819 292.9458)" class="st0" width="4.3" height="19.8"/>
		
			<rect id="rect4598" x="-11" y="330.2" transform="matrix(-2.535182e-06 -1 1 -2.535182e-06 -348.9496 331.2136)" class="st0" width="4.3" height="19.8"/>
	</g>
</g>
<g id="g881" transform="rotate(-180,159.06164,83)">
	<path id="path4562" inkscape:connector-curvature="0" sodipodi:nodetypes="ccccccccccccccccccccccccccccc" class="st0" d="
		M16.5-177.5h11.3l0,45.4H16.5l0,11.3h11.3V46.5H16.7v19.8v8.5H5.1L-196.3-98.1v-34v-102v-102v-34L5.1-543.1h11.5v8.5v19.8h11.2
		v167.2H16.5l0,11.3h11.3l0,45.4H16.5v56.7V-177.5z"/>
	<path id="path4570" inkscape:connector-curvature="0" class="st0" d="M-120.1-234.1c0,13.3-10.8,24.1-24.1,24.1c0,0,0,0,0,0
		c-13.3,0-24.1-10.8-24.1-24.1c0-13.3,10.8-24.1,24.1-24.1C-130.9-258.2-120.1-247.5-120.1-234.1
		C-120.1-234.1-120.1-234.1-120.1-234.1z"/>
	<path id="path4584" inkscape:connector-curvature="0" class="st0" d="M-18.6-234.1c0,5.7-4.6,10.3-10.3,10.3s-10.3-4.6-10.3-10.3
		c0-5.7,4.6-10.3,10.3-10.3S-18.6-239.8-18.6-234.1z"/>
	<path id="path4765" inkscape:connector-curvature="0" class="st2" d="M-196.1-120.8H16.5"/>
	<path id="rect4790" inkscape:connector-curvature="0" class="st0" d="M-37.5-120.8H5v11.3h-42.5V-120.8z"/>
	<path id="rect4792" inkscape:connector-curvature="0" class="st0" d="M-85.7-109.4h42.5v11.3h-42.5V-109.4z"/>
	<path id="path4821" inkscape:connector-curvature="0" class="st2" d="M-196.3-347.5H16.3"/>
	<path id="rect4823" inkscape:connector-curvature="0" class="st0" d="M-37.5-347.5H5v-11.3h-42.5V-347.5z"/>
	<path id="rect4825" inkscape:connector-curvature="0" class="st0" d="M-85.7-358.9h42.5v-11.3h-42.5V-358.9z"/>
</g>
<g id="flowRoot147" transform="scale(0.26458333)">
</g>
<text transform="matrix(1 0 0 1 335.4795 23.1426)" class="st3 st4">-</text>
<text transform="matrix(6.123234e-17 1 -1 6.123234e-17 301.8691 171.9131)" class="st5 st3 st4">KR</text>
<g id="text178-6" transform="rotate(90)">
	<path id="path198" class="st5" d="M567.9-323.7h3v9.2l9.8-9.2h3.8l-10.9,10.2l11.6,11.7h-3.9l-10.5-10.5v10.5h-3V-323.7z"/>
	<path id="path200" class="st5" d="M597.9-312.1c0.6,0.2,1.3,0.7,1.8,1.4c0.6,0.7,1.2,1.7,1.8,2.9l3,6h-3.2l-2.8-5.6
		c-0.7-1.5-1.4-2.4-2.1-2.9c-0.7-0.5-1.6-0.7-2.8-0.7h-3.2v9.2h-3v-21.9h6.7c2.5,0,4.4,0.5,5.6,1.6c1.2,1,1.8,2.6,1.8,4.7
		c0,1.4-0.3,2.5-1,3.4C600.1-313.1,599.1-312.5,597.9-312.1L597.9-312.1z M590.5-321.3v7.8h3.7c1.4,0,2.5-0.3,3.2-1
		c0.7-0.7,1.1-1.6,1.1-2.9c0-1.3-0.4-2.2-1.1-2.9c-0.7-0.7-1.8-1-3.2-1L590.5-321.3z"/>
</g>
<g id="layer2" inkscape:groupmode="layer" inkscape:label="Layer 2">
	<g id="g136" transform="matrix(-0.7072295,0,0,0.56504088,66.328729,172.33565)">
		<g id="g134">
			<path id="path132" inkscape:connector-curvature="0" class="st5" d="M-44.1,728.2L-62,714.4c-32.3-24.8-77.4-24.8-109.6,0
				l-17.9,13.8c-2.4,1.8-3.8,4.7-3.8,7.7v67.5c0,1.3,0.9,2.4,2.1,2.7l24.3,6.6c4.8,1.3,9.8,2,14.8,2h1.3l5.7,40.1
				c0,0.2,0.1,0.3,0.1,0.4c0,0.1,0,0.2,0.1,0.2c0.1,0.3,0.3,0.6,0.5,0.8c0,0,0,0,0,0.1c0,0,0.1,0,0.1,0.1c0.2,0.2,0.4,0.4,0.7,0.5
				c0.1,0,0.1,0.1,0.2,0.1c0,0,0.1,0,0.1,0.1c0.3,0.1,0.6,0.1,0.9,0.1c0,0,0,0,0.1,0c0.1,0,0.1,0,0.2,0c0.2,0,0.5-0.1,0.7-0.1
				c0.1,0,0.2-0.1,0.3-0.1c0.3-0.1,0.5-0.3,0.7-0.5c0,0,0.1,0,0.1,0l0,0l0,0l0,0l12.1-11.5l12.4,11c0.1,0.1,0.3,0.2,0.5,0.3
				c0.1,0,0.1,0.1,0.2,0.1c0.1,0,0.1,0.1,0.2,0.1c0,0,0,0,0,0c0.2,0.1,0.4,0.1,0.6,0.1c0.1,0,0.3,0.1,0.4,0.1c0,0,0,0,0,0l0,0l0,0
				c0.1,0,0.2,0,0.3-0.1c0.3,0,0.5-0.1,0.7-0.1c0,0,0.1,0,0.1,0c0.1,0,0.2-0.1,0.3-0.2c0.2-0.1,0.3-0.2,0.5-0.3l10.9-9.7l10,9.6
				l0.7,0.7c0.3,0.3,0.6,0.5,0.9,0.6c0.3,0.1,0.7,0.2,1,0.2c0.3,0,0.6-0.1,0.9-0.2c0,0,0.1,0,0.1-0.1c0.1,0,0.1-0.1,0.2-0.1
				c0.3-0.1,0.5-0.3,0.7-0.5c0,0,0.1,0,0.1-0.1c0,0,0,0,0-0.1c0.2-0.2,0.4-0.5,0.5-0.8c0-0.1,0-0.1,0.1-0.2c0-0.1,0.1-0.3,0.1-0.4
				l5.7-40.1h0.6c5.5,0,10.9-0.8,16.2-2.4l20.8-6.2c1.2-0.4,2-1.5,2-2.7V736C-40.3,733-41.7,730.1-44.1,728.2L-44.1,728.2z
				 M-85.6,778H-148v-35.7c0-0.6,0.5-1.1,1.1-1.1h60.1c0.6,0,1.1,0.5,1.1,1.1L-85.6,778z M-79.9,783.7h4.3c2.3,0,4.3,1.9,4.3,4.1
				c0,2.4-1.9,4.4-4.3,4.4h-4.2c0,0,0,0,0,0h-0.1h-70.9h-7.1c-2.3,0-4.3-2-4.3-4.4c0-2.3,1.9-4.1,4.3-4.1h4.3
				C-153.6,783.7-79.9,783.7-79.9,783.7z M-101.7,837.9l-9.6-9.1l13.4-12.8l9.6,8.7L-101.7,837.9z M-115.4,832.7l9.6,9.2l-8.2,8
				l-9.8-9.2L-115.4,832.7z M-128.4,837.2l-14.1-12.6l9.6-8.7l13.4,12.8L-128.4,837.2z M-115.4,824.9l-13.3-12.7l13.3-12.1
				l13.3,12.1L-115.4,824.9z M-109.3,797.9H-87l-10.9,10.4L-109.3,797.9z M-132.8,808.2l-10.9-10.4h22.3L-132.8,808.2z
				 M-146.8,802.7l9.8,9.3l-7.5,6.8l-1-7.3c0,0,0,0,0,0L-146.8,802.7z M-132.7,840.9l-7.6,7.5l-2.3-16.3L-132.7,840.9z M-90.5,848.6
				l-7.1-6.8l9.4-9.2L-90.5,848.6z M-86.2,818.9l-7.5-6.8l9.8-9.3l-1.3,8.8c0,0,0,0,0,0L-86.2,818.9z M-45.9,801.3l-18.8,5.6
				c-4.7,1.4-9.5,2.1-14.4,2.1l1.6-11.2h1.8c5.5,0,9.9-4.5,9.9-10c0-5.4-4.5-9.8-9.9-9.8h-4.3v-35.7c0-3.7-3-6.8-6.8-6.8h-60.1
				c-3.7,0-6.8,3-6.8,6.8V778h-4.3c-5.5,0-9.9,4.4-9.9,9.8c0,5.5,4.5,10,9.9,10h4.6l1.6,11.2h-0.5c-4.5,0-9-0.6-13.3-1.8l-22.2-6
				V736c0-1.3,0.6-2.5,1.6-3.2l17.9-13.8c30.2-23.3,72.5-23.3,102.7,0l17.9,13.8c1,0.8,1.6,2,1.6,3.2V801.3z"/>
		</g>
	</g>
</g>
</svg>
